# xmcd
#
# Track frame offsets:
#	150
#	9446
#	23679
#	37772
#	52169
#	66607
#	81599
#	94504
#	107094
#	121437
#	136505
#
# Disc length: 1945 seconds
#
# Revision: 2
# Processed by: cddbd v1.5.2PL0 Copyright (c) Steve Scherf et al.
# Submitted via: audiograbber 1.83.01
#
DISCID=8a07970b
DTITLE=Esther Phillips - The Country Side Of Esther Phillips
DYEAR=1966
DGENRE=Country Oldies
TTITLE0=I Really Don't Want To Know
TTITLE1=Just Out Of Reach
TTITLE2=I Can't Help It (If I'm Still In Love With You)
TTITLE3=Be Honest With Me
TTITLE4=I've Forgotten More Than You'll Ever Know About Him
TTITLE5=Release Me
TTITLE6=I'd Fight The World
TTITLE7=Am I That Easy To Forget
TTITLE8=After Loving You
TTITLE9=No Headstone On My Grave
TTITLE10=Why Should We Try Anymore
EXTD=Esther Phillips - Original Album Series (2016) [Box-Set]\n\nMARO\n
EXTT0=
EXTT1=
EXTT2=
EXTT3=
EXTT4=
EXTT5=
EXTT6=
EXTT7=
EXTT8=
EXTT9=
EXTT10=
PLAYORDER=
